<mxfile host="app.diagrams.net" modified="2023-04-10T13:47:09.359Z" agent="Mozilla/5.0 (Windows NT 10.0; Win64; x64) AppleWebKit/537.36 (KHTML, like Gecko) Chrome/112.0.0.0 Safari/537.36" etag="cZaNw8QNK5PqijIzW78p" version="21.1.5" type="device">
  <diagram name="Sayfa -1" id="TnkOSlkY45OippSYEPkg">
    <mxGraphModel dx="1434" dy="739" grid="1" gridSize="10" guides="1" tooltips="1" connect="1" arrows="1" fold="1" page="1" pageScale="1" pageWidth="1200" pageHeight="1920" math="0" shadow="0">
      <root>
        <mxCell id="0" />
        <mxCell id="1" parent="0" />
        <mxCell id="KNMXeiMGjytv2NT1C7PR-72" value="" style="rounded=0;whiteSpace=wrap;html=1;fillColor=#dae8fc;strokeColor=#6c8ebf;fillStyle=auto;glass=0;" parent="1" vertex="1">
          <mxGeometry x="260" y="90" width="750" height="690" as="geometry" />
        </mxCell>
        <mxCell id="KNMXeiMGjytv2NT1C7PR-74" value="Visitor" style="shape=umlActor;verticalLabelPosition=bottom;verticalAlign=top;html=1;outlineConnect=0;" parent="1" vertex="1">
          <mxGeometry x="110" y="200" width="30" height="60" as="geometry" />
        </mxCell>
        <mxCell id="KNMXeiMGjytv2NT1C7PR-75" value="Member" style="shape=umlActor;verticalLabelPosition=bottom;verticalAlign=top;html=1;outlineConnect=0;" parent="1" vertex="1">
          <mxGeometry x="110" y="440" width="30" height="60" as="geometry" />
        </mxCell>
        <mxCell id="KNMXeiMGjytv2NT1C7PR-76" value="Editor" style="shape=umlActor;verticalLabelPosition=bottom;verticalAlign=top;html=1;outlineConnect=0;" parent="1" vertex="1">
          <mxGeometry x="110" y="645" width="30" height="60" as="geometry" />
        </mxCell>
        <mxCell id="KNMXeiMGjytv2NT1C7PR-77" value="Admin" style="shape=umlActor;verticalLabelPosition=bottom;verticalAlign=top;html=1;outlineConnect=0;" parent="1" vertex="1">
          <mxGeometry x="1090" y="420" width="30" height="60" as="geometry" />
        </mxCell>
        <mxCell id="KNMXeiMGjytv2NT1C7PR-78" value="Access Homepage" style="ellipse;whiteSpace=wrap;html=1;" parent="1" vertex="1">
          <mxGeometry x="330" y="205" width="100" height="50" as="geometry" />
        </mxCell>
        <mxCell id="KNMXeiMGjytv2NT1C7PR-79" value="Signup" style="ellipse;whiteSpace=wrap;html=1;" parent="1" vertex="1">
          <mxGeometry x="510" y="130" width="100" height="50" as="geometry" />
        </mxCell>
        <mxCell id="KNMXeiMGjytv2NT1C7PR-80" value="Access Content" style="ellipse;whiteSpace=wrap;html=1;" parent="1" vertex="1">
          <mxGeometry x="430" y="400" width="100" height="50" as="geometry" />
        </mxCell>
        <mxCell id="KNMXeiMGjytv2NT1C7PR-81" value="Leave Impression" style="ellipse;whiteSpace=wrap;html=1;" parent="1" vertex="1">
          <mxGeometry x="640" y="400" width="100" height="50" as="geometry" />
        </mxCell>
        <mxCell id="KNMXeiMGjytv2NT1C7PR-82" value="Access Profile" style="ellipse;whiteSpace=wrap;html=1;" parent="1" vertex="1">
          <mxGeometry x="330" y="560" width="100" height="50" as="geometry" />
        </mxCell>
        <mxCell id="KNMXeiMGjytv2NT1C7PR-83" value="Update Profile" style="ellipse;whiteSpace=wrap;html=1;" parent="1" vertex="1">
          <mxGeometry x="520" y="630" width="100" height="50" as="geometry" />
        </mxCell>
        <mxCell id="KNMXeiMGjytv2NT1C7PR-84" value="Set Impression" style="ellipse;whiteSpace=wrap;html=1;" parent="1" vertex="1">
          <mxGeometry x="520" y="490" width="100" height="50" as="geometry" />
        </mxCell>
        <mxCell id="KNMXeiMGjytv2NT1C7PR-85" value="Set Authorization" style="ellipse;whiteSpace=wrap;html=1;" parent="1" vertex="1">
          <mxGeometry x="730" y="590" width="100" height="50" as="geometry" />
        </mxCell>
        <mxCell id="KNMXeiMGjytv2NT1C7PR-86" value="Update Content" style="ellipse;whiteSpace=wrap;html=1;" parent="1" vertex="1">
          <mxGeometry x="570" y="560" width="100" height="50" as="geometry" />
        </mxCell>
        <mxCell id="KNMXeiMGjytv2NT1C7PR-87" value="Block User" style="ellipse;whiteSpace=wrap;html=1;" parent="1" vertex="1">
          <mxGeometry x="740" y="650" width="100" height="50" as="geometry" />
        </mxCell>
        <mxCell id="KNMXeiMGjytv2NT1C7PR-88" value="Delete Comments" style="ellipse;whiteSpace=wrap;html=1;" parent="1" vertex="1">
          <mxGeometry x="760" y="530" width="100" height="50" as="geometry" />
        </mxCell>
        <mxCell id="KNMXeiMGjytv2NT1C7PR-89" value="Create Content" style="ellipse;whiteSpace=wrap;html=1;" parent="1" vertex="1">
          <mxGeometry x="330" y="710" width="100" height="50" as="geometry" />
        </mxCell>
        <mxCell id="KNMXeiMGjytv2NT1C7PR-90" value="" style="endArrow=none;html=1;rounded=0;entryX=0;entryY=0.5;entryDx=0;entryDy=0;" parent="1" target="KNMXeiMGjytv2NT1C7PR-78" edge="1">
          <mxGeometry width="50" height="50" relative="1" as="geometry">
            <mxPoint x="150" y="230" as="sourcePoint" />
            <mxPoint x="270" y="280" as="targetPoint" />
          </mxGeometry>
        </mxCell>
        <mxCell id="KNMXeiMGjytv2NT1C7PR-91" value="" style="endArrow=none;html=1;rounded=0;entryX=0;entryY=0.5;entryDx=0;entryDy=0;" parent="1" target="KNMXeiMGjytv2NT1C7PR-78" edge="1">
          <mxGeometry width="50" height="50" relative="1" as="geometry">
            <mxPoint x="150" y="680" as="sourcePoint" />
            <mxPoint x="260" y="290" as="targetPoint" />
          </mxGeometry>
        </mxCell>
        <mxCell id="KNMXeiMGjytv2NT1C7PR-92" value="" style="endArrow=none;html=1;rounded=0;entryX=0;entryY=0.5;entryDx=0;entryDy=0;" parent="1" target="KNMXeiMGjytv2NT1C7PR-78" edge="1">
          <mxGeometry width="50" height="50" relative="1" as="geometry">
            <mxPoint x="150" y="480" as="sourcePoint" />
            <mxPoint x="260" y="290" as="targetPoint" />
          </mxGeometry>
        </mxCell>
        <mxCell id="KNMXeiMGjytv2NT1C7PR-93" value="" style="endArrow=none;html=1;rounded=0;" parent="1" target="KNMXeiMGjytv2NT1C7PR-78" edge="1">
          <mxGeometry width="50" height="50" relative="1" as="geometry">
            <mxPoint x="1080" y="450" as="sourcePoint" />
            <mxPoint x="350" y="530" as="targetPoint" />
          </mxGeometry>
        </mxCell>
        <mxCell id="KNMXeiMGjytv2NT1C7PR-94" value="&amp;lt;&amp;lt;extend&amp;gt;&amp;gt;" style="html=1;verticalAlign=bottom;labelBackgroundColor=none;endArrow=open;endFill=0;dashed=1;rounded=0;" parent="1" source="KNMXeiMGjytv2NT1C7PR-81" target="KNMXeiMGjytv2NT1C7PR-80" edge="1">
          <mxGeometry width="160" relative="1" as="geometry">
            <mxPoint x="470" y="590" as="sourcePoint" />
            <mxPoint x="630" y="590" as="targetPoint" />
          </mxGeometry>
        </mxCell>
        <mxCell id="KNMXeiMGjytv2NT1C7PR-95" value="" style="endArrow=none;html=1;rounded=0;entryX=0;entryY=0.5;entryDx=0;entryDy=0;" parent="1" target="KNMXeiMGjytv2NT1C7PR-82" edge="1">
          <mxGeometry width="50" height="50" relative="1" as="geometry">
            <mxPoint x="150" y="680" as="sourcePoint" />
            <mxPoint x="410" y="440" as="targetPoint" />
          </mxGeometry>
        </mxCell>
        <mxCell id="KNMXeiMGjytv2NT1C7PR-96" value="" style="endArrow=none;html=1;rounded=0;entryX=0;entryY=0.5;entryDx=0;entryDy=0;" parent="1" target="KNMXeiMGjytv2NT1C7PR-82" edge="1">
          <mxGeometry width="50" height="50" relative="1" as="geometry">
            <mxPoint x="150" y="480" as="sourcePoint" />
            <mxPoint x="410" y="440" as="targetPoint" />
          </mxGeometry>
        </mxCell>
        <mxCell id="KNMXeiMGjytv2NT1C7PR-97" value="Delete Content" style="ellipse;whiteSpace=wrap;html=1;" parent="1" vertex="1">
          <mxGeometry x="780" y="710" width="100" height="50" as="geometry" />
        </mxCell>
        <mxCell id="KNMXeiMGjytv2NT1C7PR-98" value="Access Control Page" style="ellipse;whiteSpace=wrap;html=1;" parent="1" vertex="1">
          <mxGeometry x="900" y="610" width="100" height="50" as="geometry" />
        </mxCell>
        <mxCell id="KNMXeiMGjytv2NT1C7PR-99" value="Search Contents&amp;nbsp;" style="ellipse;whiteSpace=wrap;html=1;" parent="1" vertex="1">
          <mxGeometry x="480" y="300" width="100" height="50" as="geometry" />
        </mxCell>
        <mxCell id="KNMXeiMGjytv2NT1C7PR-100" value="Login" style="ellipse;whiteSpace=wrap;html=1;" parent="1" vertex="1">
          <mxGeometry x="510" y="205" width="100" height="50" as="geometry" />
        </mxCell>
        <mxCell id="KNMXeiMGjytv2NT1C7PR-101" value="Logout" style="ellipse;whiteSpace=wrap;html=1;" parent="1" vertex="1">
          <mxGeometry x="750" y="205" width="100" height="50" as="geometry" />
        </mxCell>
        <mxCell id="KNMXeiMGjytv2NT1C7PR-102" value="&amp;lt;&amp;lt;extend&amp;gt;&amp;gt;" style="html=1;verticalAlign=bottom;labelBackgroundColor=none;endArrow=open;endFill=0;dashed=1;rounded=0;" parent="1" source="KNMXeiMGjytv2NT1C7PR-101" target="KNMXeiMGjytv2NT1C7PR-100" edge="1">
          <mxGeometry width="160" relative="1" as="geometry">
            <mxPoint x="560" y="415" as="sourcePoint" />
            <mxPoint x="720" y="415" as="targetPoint" />
          </mxGeometry>
        </mxCell>
        <mxCell id="KNMXeiMGjytv2NT1C7PR-103" value="&amp;lt;&amp;lt;extend&amp;gt;&amp;gt;" style="html=1;verticalAlign=bottom;labelBackgroundColor=none;endArrow=open;endFill=0;dashed=1;rounded=0;" parent="1" source="KNMXeiMGjytv2NT1C7PR-79" target="KNMXeiMGjytv2NT1C7PR-78" edge="1">
          <mxGeometry width="160" relative="1" as="geometry">
            <mxPoint x="280" y="159" as="sourcePoint" />
            <mxPoint x="440" y="159" as="targetPoint" />
          </mxGeometry>
        </mxCell>
        <mxCell id="KNMXeiMGjytv2NT1C7PR-104" value="&amp;lt;&amp;lt;extend&amp;gt;&amp;gt;" style="html=1;verticalAlign=bottom;labelBackgroundColor=none;endArrow=open;endFill=0;dashed=1;rounded=0;" parent="1" source="KNMXeiMGjytv2NT1C7PR-100" target="KNMXeiMGjytv2NT1C7PR-78" edge="1">
          <mxGeometry width="160" relative="1" as="geometry">
            <mxPoint x="510" y="500" as="sourcePoint" />
            <mxPoint x="670" y="500" as="targetPoint" />
          </mxGeometry>
        </mxCell>
        <mxCell id="KNMXeiMGjytv2NT1C7PR-105" value="List Contents" style="ellipse;whiteSpace=wrap;html=1;" parent="1" vertex="1">
          <mxGeometry x="330" y="320" width="100" height="50" as="geometry" />
        </mxCell>
        <mxCell id="KNMXeiMGjytv2NT1C7PR-106" value="&amp;lt;&amp;lt;include&amp;gt;&amp;gt;" style="html=1;verticalAlign=bottom;labelBackgroundColor=none;endArrow=open;endFill=0;dashed=1;rounded=0;" parent="1" source="KNMXeiMGjytv2NT1C7PR-78" target="KNMXeiMGjytv2NT1C7PR-105" edge="1">
          <mxGeometry width="160" relative="1" as="geometry">
            <mxPoint x="510" y="500" as="sourcePoint" />
            <mxPoint x="400" y="270" as="targetPoint" />
          </mxGeometry>
        </mxCell>
        <mxCell id="KNMXeiMGjytv2NT1C7PR-107" value="&amp;lt;&amp;lt;extend&amp;gt;&amp;gt;" style="html=1;verticalAlign=bottom;labelBackgroundColor=none;endArrow=open;endFill=0;dashed=1;rounded=0;" parent="1" source="KNMXeiMGjytv2NT1C7PR-99" target="KNMXeiMGjytv2NT1C7PR-78" edge="1">
          <mxGeometry width="160" relative="1" as="geometry">
            <mxPoint x="510" y="500" as="sourcePoint" />
            <mxPoint x="670" y="500" as="targetPoint" />
          </mxGeometry>
        </mxCell>
        <mxCell id="KNMXeiMGjytv2NT1C7PR-108" value="&amp;lt;&amp;lt;extend&amp;gt;&amp;gt;" style="html=1;verticalAlign=bottom;labelBackgroundColor=none;endArrow=open;endFill=0;dashed=1;rounded=0;" parent="1" source="KNMXeiMGjytv2NT1C7PR-80" target="KNMXeiMGjytv2NT1C7PR-105" edge="1">
          <mxGeometry width="160" relative="1" as="geometry">
            <mxPoint x="620" y="485" as="sourcePoint" />
            <mxPoint x="670" y="500" as="targetPoint" />
          </mxGeometry>
        </mxCell>
        <mxCell id="KNMXeiMGjytv2NT1C7PR-109" value="&amp;lt;&amp;lt;extend&amp;gt;&amp;gt;" style="html=1;verticalAlign=bottom;labelBackgroundColor=none;endArrow=open;endFill=0;dashed=1;rounded=0;" parent="1" source="KNMXeiMGjytv2NT1C7PR-84" target="KNMXeiMGjytv2NT1C7PR-82" edge="1">
          <mxGeometry width="160" relative="1" as="geometry">
            <mxPoint x="510" y="510" as="sourcePoint" />
            <mxPoint x="670" y="510" as="targetPoint" />
          </mxGeometry>
        </mxCell>
        <mxCell id="KNMXeiMGjytv2NT1C7PR-110" value="&amp;lt;&amp;lt;extend&amp;gt;&amp;gt;" style="html=1;verticalAlign=bottom;labelBackgroundColor=none;endArrow=open;endFill=0;dashed=1;rounded=0;" parent="1" source="KNMXeiMGjytv2NT1C7PR-86" target="KNMXeiMGjytv2NT1C7PR-82" edge="1">
          <mxGeometry width="160" relative="1" as="geometry">
            <mxPoint x="510" y="510" as="sourcePoint" />
            <mxPoint x="670" y="510" as="targetPoint" />
          </mxGeometry>
        </mxCell>
        <mxCell id="KNMXeiMGjytv2NT1C7PR-111" value="&amp;lt;&amp;lt;extend&amp;gt;&amp;gt;" style="html=1;verticalAlign=bottom;labelBackgroundColor=none;endArrow=open;endFill=0;dashed=1;rounded=0;" parent="1" source="KNMXeiMGjytv2NT1C7PR-83" target="KNMXeiMGjytv2NT1C7PR-82" edge="1">
          <mxGeometry width="160" relative="1" as="geometry">
            <mxPoint x="510" y="510" as="sourcePoint" />
            <mxPoint x="670" y="510" as="targetPoint" />
          </mxGeometry>
        </mxCell>
        <mxCell id="KNMXeiMGjytv2NT1C7PR-112" value="" style="endArrow=none;html=1;rounded=0;" parent="1" source="KNMXeiMGjytv2NT1C7PR-98" edge="1">
          <mxGeometry width="50" height="50" relative="1" as="geometry">
            <mxPoint x="560" y="730" as="sourcePoint" />
            <mxPoint x="1080" y="450" as="targetPoint" />
          </mxGeometry>
        </mxCell>
        <mxCell id="KNMXeiMGjytv2NT1C7PR-113" value="" style="endArrow=none;html=1;rounded=0;" parent="1" target="KNMXeiMGjytv2NT1C7PR-89" edge="1">
          <mxGeometry width="50" height="50" relative="1" as="geometry">
            <mxPoint x="150" y="680" as="sourcePoint" />
            <mxPoint x="400" y="530" as="targetPoint" />
          </mxGeometry>
        </mxCell>
        <mxCell id="KNMXeiMGjytv2NT1C7PR-114" value="&amp;lt;&amp;lt;extend&amp;gt;&amp;gt;" style="html=1;verticalAlign=bottom;labelBackgroundColor=none;endArrow=open;endFill=0;dashed=1;rounded=0;" parent="1" source="KNMXeiMGjytv2NT1C7PR-88" target="KNMXeiMGjytv2NT1C7PR-98" edge="1">
          <mxGeometry width="160" relative="1" as="geometry">
            <mxPoint x="510" y="560" as="sourcePoint" />
            <mxPoint x="670" y="560" as="targetPoint" />
          </mxGeometry>
        </mxCell>
        <mxCell id="KNMXeiMGjytv2NT1C7PR-115" value="&amp;lt;&amp;lt;extend&amp;gt;&amp;gt;" style="html=1;verticalAlign=bottom;labelBackgroundColor=none;endArrow=open;endFill=0;dashed=1;rounded=0;" parent="1" source="KNMXeiMGjytv2NT1C7PR-85" target="KNMXeiMGjytv2NT1C7PR-98" edge="1">
          <mxGeometry width="160" relative="1" as="geometry">
            <mxPoint x="510" y="560" as="sourcePoint" />
            <mxPoint x="670" y="560" as="targetPoint" />
          </mxGeometry>
        </mxCell>
        <mxCell id="KNMXeiMGjytv2NT1C7PR-116" value="&amp;lt;&amp;lt;extend&amp;gt;&amp;gt;" style="html=1;verticalAlign=bottom;labelBackgroundColor=none;endArrow=open;endFill=0;dashed=1;rounded=0;" parent="1" source="KNMXeiMGjytv2NT1C7PR-87" target="KNMXeiMGjytv2NT1C7PR-98" edge="1">
          <mxGeometry width="160" relative="1" as="geometry">
            <mxPoint x="510" y="660" as="sourcePoint" />
            <mxPoint x="670" y="660" as="targetPoint" />
          </mxGeometry>
        </mxCell>
        <mxCell id="KNMXeiMGjytv2NT1C7PR-117" value="&amp;lt;&amp;lt;extend&amp;gt;&amp;gt;" style="html=1;verticalAlign=bottom;labelBackgroundColor=none;endArrow=open;endFill=0;dashed=1;rounded=0;" parent="1" source="KNMXeiMGjytv2NT1C7PR-97" target="KNMXeiMGjytv2NT1C7PR-98" edge="1">
          <mxGeometry width="160" relative="1" as="geometry">
            <mxPoint x="510" y="660" as="sourcePoint" />
            <mxPoint x="670" y="660" as="targetPoint" />
          </mxGeometry>
        </mxCell>
        <mxCell id="KNMXeiMGjytv2NT1C7PR-118" value="Blogosphere System" style="text;html=1;strokeColor=none;fillColor=none;align=center;verticalAlign=middle;whiteSpace=wrap;rounded=0;" parent="1" vertex="1">
          <mxGeometry x="565" y="90" width="140" height="30" as="geometry" />
        </mxCell>
      </root>
    </mxGraphModel>
  </diagram>
</mxfile>
